<?xml version="1.0" standalone="no"?>
<!DOCTYPE svg PUBLIC "-//W3C//DTD SVG 20010904//EN"
 "http://www.w3.org/TR/2001/REC-SVG-20010904/DTD/svg10.dtd">
<svg version="1.0" xmlns="http://www.w3.org/2000/svg"
 width="300.000000pt" height="279.000000pt" viewBox="0 0 300.000000 279.000000"
 preserveAspectRatio="xMidYMid meet">
<metadata>
Created by potrace 1.10, written by Peter Selinger 2001-2011
</metadata>
<g transform="translate(0.000000,279.000000) scale(0.050000,-0.050000)"
fill="#000000" stroke="none">
<path d="M2551 5450 c-2622 -428 -3186 -3895 -821 -5050 2119 -1036 4430 897
3777 3159 -360 1245 -1691 2097 -2956 1891z m814 -302 c1918 -364 2641 -2766
1229 -4079 -1519 -1412 -3964 -437 -4067 1621 -77 1522 1334 2743 2838 2458z"/>
<path d="M2064 4838 c-205 -60 -157 -398 57 -398 33 0 82 -14 108 -31 99 -65
215 -41 163 34 -20 29 -32 88 -32 161 0 185 -125 284 -296 234z"/>
<path d="M3628 4832 c-94 -42 -128 -104 -128 -234 0 -82 -11 -126 -40 -163
l-40 -51 52 -13 c34 -8 81 2 136 28 47 23 110 41 140 41 73 0 192 116 192 187
0 160 -166 269 -312 205z"/>
<path d="M2770 4783 c-270 -167 -154 -603 160 -603 316 0 436 417 171 595 -86
58 -244 61 -331 8z"/>
<path d="M1482 4457 c-366 -106 -299 -637 80 -637 170 0 318 148 318 318 -1
219 -198 377 -398 319z"/>
<path d="M4194 4451 c-139 -49 -214 -159 -214 -311 0 -344 477 -442 612 -126
109 254 -142 528 -398 437z"/>
<path d="M2471 4161 c-101 -67 -129 -147 -130 -368 -1 -174 3 -196 32 -185
179 69 606 89 915 42 109 -17 206 -30 215 -30 32 0 19 359 -15 432 -60 125
-194 180 -260 105 -134 -151 -462 -151 -596 0 -47 53 -85 54 -161 4z"/>
<path d="M1131 3775 c-145 -145 -50 -390 166 -426 126 -21 147 -31 238 -116
84 -77 90 -79 110 -42 44 81 196 207 328 271 75 36 140 67 143 69 39 25 -149
289 -206 289 -14 0 -53 -26 -87 -57 -148 -138 -398 -128 -557 22 l-64 61 -71
-71z"/>
<path d="M4584 3779 c-110 -139 -406 -147 -556 -14 -83 73 -142 55 -219 -65
-90 -139 -87 -149 75 -233 87 -46 192 -124 260 -193 l114 -116 32 49 c38 58
171 127 274 143 219 34 308 319 142 450 -65 50 -66 50 -122 -21z"/>
<path d="M2612 3519 c-497 -78 -1008 -380 -881 -521 34 -37 38 -35 142 63 473
447 1643 446 2117 -3 106 -100 112 -103 140 -66 42 55 40 60 -71 177 -255 270
-926 432 -1447 350z"/>
<path d="M1049 3258 c6 -37 38 -230 71 -428 69 -412 84 -461 162 -501 66 -34
513 -42 455 -8 -38 22 -105 126 -126 194 -24 78 64 56 146 -37 40 -44 136
-119 213 -166 232 -141 230 -136 230 -683 0 -499 4 -520 104 -506 l46 7 5 505
c5 481 7 505 44 505 94 0 101 -14 101 -213 0 -270 70 -376 203 -306 72 38 76
54 77 264 l0 195 150 0 150 0 0 -197 c0 -232 39 -300 158 -273 101 22 122 73
122 302 0 194 2 204 45 215 98 27 95 42 95 -465 0 -535 1 -542 82 -542 76 0
77 4 83 544 6 529 0 511 227 649 76 46 171 121 211 165 95 107 163 113 132 13
-11 -38 -46 -96 -77 -130 l-56 -61 210 0 c344 0 338 -8 427 550 34 209 66 400
71 425 l11 44 -73 -49 c-39 -27 -105 -54 -145 -61 -137 -23 -178 -52 -321
-230 l-143 -179 -258 0 c-245 0 -260 -2 -290 -44 -82 -118 -8 -182 226 -196
l173 -10 -65 -46 c-470 -336 -1485 -344 -1965 -16 l-90 62 173 10 c189 12 257
46 257 130 0 92 -53 110 -325 110 l-252 0 -153 180 c-171 202 -182 209 -315
229 -57 8 -119 34 -156 65 l-62 52 12 -68z"/>
<path d="M770 3113 c-49 -36 -47 -76 29 -513 69 -397 105 -491 218 -575 l62
-45 5 -273 c6 -294 27 -348 111 -295 30 19 36 61 41 295 l5 273 256 0 c331 0
323 7 323 -298 0 -280 26 -341 145 -342 102 0 119 59 111 407 -8 428 14 408
-453 416 -521 10 -526 15 -624 557 -73 406 -114 477 -229 393z"/>
<path d="M4953 3110 c-39 -39 -40 -44 -105 -417 -88 -503 -105 -519 -609 -533
-465 -13 -454 -1 -458 -511 -1 -252 21 -309 120 -309 118 0 139 50 139 329 0
318 -8 311 334 311 l245 0 5 -285 c6 -280 7 -285 52 -292 93 -13 104 21 104
310 l0 268 71 63 c106 92 126 146 200 543 82 434 84 480 25 522 -56 39 -85 39
-123 1z"/>
<path d="M1540 1574 c0 -301 15 -341 111 -297 l50 23 -5 265 -6 265 -75 6 -75
6 0 -268z"/>
<path d="M4160 1589 c0 -260 16 -329 77 -329 72 0 83 40 83 314 l0 266 -80 0
-80 0 0 -251z"/>
</g>
</svg>
